<svg xmlns="http://www.w3.org/2000/svg" width="198" height="4.777" viewBox="0 0 198 4.777">
  <g id="Path_2416" data-name="Path 2416" fill="#335f32">
    <path d="M 182.5 4.277289390563965 L 15.5 4.277289390563965 C 11.3991003036499 4.277289390563965 7.549349784851074 3.883489370346069 4.659949779510498 3.168464183807373 C 1.757391571998596 2.450168609619141 0.6250855326652527 1.593493461608887 0.5099203586578369 1.035305380821228 C 0.6428821086883545 0.9572896957397461 1.06973659992218 0.7828391790390015 2.339375019073486 0.6576142311096191 C 3.399825096130371 0.5530142784118652 4.881724834442139 0.4999892711639404 6.743875026702881 0.4999892711639404 C 11.05507469177246 0.4999892711639404 16.9268741607666 0.7810892462730408 22.10745048522949 1.029089212417603 C 26.53804969787598 1.241189241409302 30.72292518615723 1.441514253616333 33.34962463378906 1.441514253616333 L 176.01171875 1.441514253616333 C 179.0350952148438 1.441514253616333 182.6122436523438 1.182464241981506 186.0716247558594 0.9319392442703247 C 189.1388702392578 0.7098142504692078 192.0360260009766 0.4999892711639404 194.2016448974609 0.4999892711639404 C 195.2528076171875 0.4999892711639404 196.0457458496094 0.5486392378807068 196.6258239746094 0.6487142443656921 C 197.3067932128906 0.7662000060081482 197.4712371826172 0.9193812608718872 197.4998474121094 0.9528055191040039 C 197.4851531982422 1.506315350532532 196.3897247314453 2.413762092590332 193.3400573730469 3.168464183807373 C 190.4506530761719 3.883489370346069 186.6009063720703 4.277289390563965 182.5 4.277289390563965 Z" stroke="none"/>
    <path d="M 182.5 3.777289152145386 C 186.4507446289062 3.777289152145386 190.1837768554688 3.406689167022705 193.0113525390625 2.73371434211731 C 195.4007415771484 2.165047645568848 196.4313201904297 1.545021653175354 196.8109893798828 1.192981004714966 C 196.4322967529297 1.102437853813171 195.6775817871094 0.9999892711639404 194.2016448974609 0.9999892711639404 C 192.0541229248047 0.9999892711639404 189.1657257080078 1.209164261817932 186.1077270507812 1.430614233016968 C 182.6394958496094 1.68178927898407 179.0531768798828 1.941514253616333 176.01171875 1.941514253616333 L 33.34962463378906 1.941514253616333 C 30.71095085144043 1.941514253616333 26.5202751159668 1.740889310836792 22.08354949951172 1.528514266014099 C 16.90855026245117 1.280764222145081 11.04310035705566 0.9999892711639404 6.743875026702881 0.9999892711639404 C 5.027675151824951 0.9999892711639404 3.638849973678589 1.045114278793335 2.615925073623657 1.134114265441895 C 2.016364812850952 1.18628990650177 1.603396654129028 1.247977733612061 1.321936130523682 1.304323673248291 C 1.786635041236877 1.667604565620422 2.83635139465332 2.221474409103394 4.988649845123291 2.73371434211731 C 7.816225051879883 3.406689167022705 11.54924964904785 3.777289152145386 15.5 3.777289152145386 L 182.5 3.777289152145386 M 182.5 4.777289390563965 L 15.5 4.777289390563965 C 6.9395751953125 4.777289390563965 0 3.059964179992676 0 0.941514253616333 C 0 -1.176910758018494 24.78919792175293 0.941514253616333 33.34962463378906 0.941514253616333 L 176.01171875 0.941514253616333 C 184.5721282958984 0.941514253616333 198 -1.176912307739258 198 0.941514253616333 C 198 3.059964179992676 191.0604248046875 4.777289390563965 182.5 4.777289390563965 Z" stroke="none" fill="#707070"/>
  </g>
</svg>
